# xmcd CD database file
#
# Track frame offsets:
#	150
#	20189
#	39385
#	68773
#	90943
#	117737
#	134079
#	154798
#	180022
#	199940
#	214757
#	240259
#	261777
#	280166
#	301511
#
# Disc length: 4138 seconds
#
# Revision: 0
# Processed by: cddbd v1.5.2PL0 Copyright (c) Steve Scherf et al.
# Submitted via: Feurio! 1.67 - http://www.feurio.com
#
DISCID=c810280f
DTITLE=Various Artist - The Music of Mali
DYEAR=1900
DGENRE=Gospel
TTITLE0=Amadou et Mariam - Ko Be Na Touma Do
TTITLE1=Afel Bocoum - Jaman Moro
TTITLE2=Super Rail Band - Mansa
TTITLE3=Toumani Diabate and Ballake Sissoko - Bi Lamban
TTITLE4=Kandia Koyaté - Ayamafelé
TTITLE5=Ali Farka Toure - Hilly Yoro
TTITLE6=Fode Koyaté - Batrou Bolo
TTITLE7=Rokia Traore - Wanita
TTITLE8=Fantani Toure - Sanka Nyonkon
TTITLE9=Taj Mahal and Toumani Diabate - Mississippi-Mali Blues
TTITLE10=Boubacar Traoré - Kar Kar Madison
TTITLE11=Sidi Touré - Hoga
TTITLE12=Oumou Sangare - Kun Fè Ko
TTITLE13=Habib Koité - Wassiye
TTITLE14=Salif Keita - Tekere (a cappella remix)
EXTD=
EXTT0=
EXTT1=
EXTT2=
EXTT3=
EXTT4=
EXTT5=
EXTT6=
EXTT7=
EXTT8=
EXTT9=
EXTT10=
EXTT11=
EXTT12=
EXTT13=
EXTT14=
PLAYORDER=
